<mxfile host="app.diagrams.net" modified="2021-08-01T10:39:48.443Z" agent="5.0 (Macintosh; Intel Mac OS X 10_15_7) AppleWebKit/537.36 (KHTML, like Gecko) Chrome/92.0.4515.107 Safari/537.36" etag="-_KM1MReDOqqNMuE4R4q" version="14.9.3" type="github">
  <diagram id="LFTMH-GmXq4NFLhhHVCg" name="Page-1">
    <mxGraphModel dx="1351" dy="2092" grid="1" gridSize="10" guides="1" tooltips="1" connect="1" arrows="1" fold="1" page="1" pageScale="1" pageWidth="827" pageHeight="1169" math="0" shadow="0">
      <root>
        <mxCell id="0" />
        <mxCell id="1" parent="0" />
        <mxCell id="pXC8YRk_RRQe1RSf-naC-39" style="edgeStyle=orthogonalEdgeStyle;rounded=0;orthogonalLoop=1;jettySize=auto;html=1;exitX=0.5;exitY=1;exitDx=0;exitDy=0;" edge="1" parent="1" source="pXC8YRk_RRQe1RSf-naC-2" target="pXC8YRk_RRQe1RSf-naC-3">
          <mxGeometry relative="1" as="geometry" />
        </mxCell>
        <mxCell id="pXC8YRk_RRQe1RSf-naC-2" value="" style="shape=image;html=1;verticalAlign=top;verticalLabelPosition=bottom;labelBackgroundColor=#ffffff;imageAspect=0;aspect=fixed;image=https://cdn4.iconfinder.com/data/icons/essential-app-2/16/record-round-circle-dot-128.png" vertex="1" parent="1">
          <mxGeometry x="400" y="-1160" width="40" height="40" as="geometry" />
        </mxCell>
        <mxCell id="pXC8YRk_RRQe1RSf-naC-40" style="edgeStyle=orthogonalEdgeStyle;rounded=0;orthogonalLoop=1;jettySize=auto;html=1;exitX=0.5;exitY=1;exitDx=0;exitDy=0;" edge="1" parent="1" source="pXC8YRk_RRQe1RSf-naC-3" target="pXC8YRk_RRQe1RSf-naC-4">
          <mxGeometry relative="1" as="geometry" />
        </mxCell>
        <mxCell id="pXC8YRk_RRQe1RSf-naC-3" value="&lt;font style=&quot;font-size: 18px&quot;&gt;Load the target profile who will receive recommendations&amp;nbsp;&lt;/font&gt;" style="rounded=1;whiteSpace=wrap;html=1;" vertex="1" parent="1">
          <mxGeometry x="120" y="-1080" width="600" height="40" as="geometry" />
        </mxCell>
        <mxCell id="pXC8YRk_RRQe1RSf-naC-41" style="edgeStyle=orthogonalEdgeStyle;rounded=0;orthogonalLoop=1;jettySize=auto;html=1;exitX=0.5;exitY=1;exitDx=0;exitDy=0;entryX=0.5;entryY=0;entryDx=0;entryDy=0;" edge="1" parent="1" source="pXC8YRk_RRQe1RSf-naC-4" target="pXC8YRk_RRQe1RSf-naC-5">
          <mxGeometry relative="1" as="geometry" />
        </mxCell>
        <mxCell id="pXC8YRk_RRQe1RSf-naC-4" value="&lt;font&gt;&lt;font style=&quot;font-size: 18px&quot;&gt;Classifies the elements impacted by the physical activity as per the Health and Food Data Points of the user and creates a list of recommendations (LR)&lt;/font&gt;&lt;br&gt;&lt;/font&gt;" style="rounded=1;whiteSpace=wrap;html=1;" vertex="1" parent="1">
          <mxGeometry x="120" y="-1000" width="600" height="80" as="geometry" />
        </mxCell>
        <mxCell id="pXC8YRk_RRQe1RSf-naC-42" style="edgeStyle=orthogonalEdgeStyle;rounded=0;orthogonalLoop=1;jettySize=auto;html=1;exitX=0.5;exitY=1;exitDx=0;exitDy=0;entryX=0.5;entryY=0;entryDx=0;entryDy=0;" edge="1" parent="1" source="pXC8YRk_RRQe1RSf-naC-5" target="pXC8YRk_RRQe1RSf-naC-6">
          <mxGeometry relative="1" as="geometry" />
        </mxCell>
        <mxCell id="pXC8YRk_RRQe1RSf-naC-5" value="&lt;font style=&quot;font-size: 18px&quot;&gt;Pick the first element of LR&lt;/font&gt;" style="rounded=1;whiteSpace=wrap;html=1;" vertex="1" parent="1">
          <mxGeometry x="120" y="-880" width="600" height="40" as="geometry" />
        </mxCell>
        <mxCell id="pXC8YRk_RRQe1RSf-naC-32" style="edgeStyle=orthogonalEdgeStyle;rounded=0;orthogonalLoop=1;jettySize=auto;html=1;exitX=0.25;exitY=1;exitDx=0;exitDy=0;entryX=0.5;entryY=0.167;entryDx=0;entryDy=0;entryPerimeter=0;" edge="1" parent="1" source="pXC8YRk_RRQe1RSf-naC-6" target="pXC8YRk_RRQe1RSf-naC-7">
          <mxGeometry relative="1" as="geometry" />
        </mxCell>
        <mxCell id="pXC8YRk_RRQe1RSf-naC-6" value="&lt;font style=&quot;font-size: 18px&quot;&gt;Loads the list of profile&#39;s daily history(LPH) with positive indexes for elements picked in the previous step&lt;/font&gt;" style="rounded=1;whiteSpace=wrap;html=1;" vertex="1" parent="1">
          <mxGeometry x="120" y="-800" width="600" height="50" as="geometry" />
        </mxCell>
        <mxCell id="pXC8YRk_RRQe1RSf-naC-33" style="edgeStyle=orthogonalEdgeStyle;rounded=0;orthogonalLoop=1;jettySize=auto;html=1;exitX=0;exitY=0.5;exitDx=0;exitDy=0;entryX=0.25;entryY=0;entryDx=0;entryDy=0;" edge="1" parent="1" source="pXC8YRk_RRQe1RSf-naC-7" target="pXC8YRk_RRQe1RSf-naC-8">
          <mxGeometry relative="1" as="geometry">
            <Array as="points">
              <mxPoint x="130" y="-690" />
              <mxPoint x="130" y="-640" />
              <mxPoint x="205" y="-640" />
            </Array>
          </mxGeometry>
        </mxCell>
        <mxCell id="pXC8YRk_RRQe1RSf-naC-35" value="&lt;font style=&quot;font-size: 16px&quot;&gt;LPH is not empty&lt;/font&gt;" style="edgeLabel;html=1;align=center;verticalAlign=middle;resizable=0;points=[];" vertex="1" connectable="0" parent="pXC8YRk_RRQe1RSf-naC-33">
          <mxGeometry x="0.1075" relative="1" as="geometry">
            <mxPoint x="70" y="-1" as="offset" />
          </mxGeometry>
        </mxCell>
        <mxCell id="pXC8YRk_RRQe1RSf-naC-34" style="edgeStyle=orthogonalEdgeStyle;rounded=0;orthogonalLoop=1;jettySize=auto;html=1;exitX=1;exitY=0.5;exitDx=0;exitDy=0;entryX=0.5;entryY=0;entryDx=0;entryDy=0;" edge="1" parent="1" source="pXC8YRk_RRQe1RSf-naC-7" target="pXC8YRk_RRQe1RSf-naC-12">
          <mxGeometry relative="1" as="geometry">
            <Array as="points">
              <mxPoint x="510" y="-690" />
              <mxPoint x="510" y="-500" />
            </Array>
          </mxGeometry>
        </mxCell>
        <mxCell id="pXC8YRk_RRQe1RSf-naC-36" value="&lt;span style=&quot;color: rgba(0 , 0 , 0 , 0) ; font-family: monospace ; font-size: 0px ; background-color: rgb(248 , 249 , 250)&quot;&gt;%3CmxGraphModel%3E%3Croot%3E%3CmxCell%20id%3D%220%22%2F%3E%3CmxCell%20id%3D%221%22%20parent%3D%220%22%2F%3E%3CmxCell%20id%3D%222%22%20value%3D%22%26lt%3Bfont%20style%3D%26quot%3Bfont-size%3A%2016px%26quot%3B%26gt%3BLPH%20is%20not%20empty%26lt%3B%2Ffont%26gt%3B%22%20style%3D%22edgeLabel%3Bhtml%3D1%3Balign%3Dcenter%3BverticalAlign%3Dmiddle%3Bresizable%3D0%3Bpoints%3D%5B%5D%3B%22%20vertex%3D%221%22%20connectable%3D%220%22%20parent%3D%221%22%3E%3CmxGeometry%20x%3D%22200.00000000000023%22%20y%3D%22-668.1428571428569%22%20as%3D%22geometry%22%2F%3E%3C%2FmxCell%3E%3C%2Froot%3E%3C%2FmxGraphModel%3&lt;/span&gt;" style="edgeLabel;html=1;align=center;verticalAlign=middle;resizable=0;points=[];" vertex="1" connectable="0" parent="pXC8YRk_RRQe1RSf-naC-34">
          <mxGeometry x="-0.6035" y="1" relative="1" as="geometry">
            <mxPoint as="offset" />
          </mxGeometry>
        </mxCell>
        <mxCell id="pXC8YRk_RRQe1RSf-naC-7" value="" style="rhombus;whiteSpace=wrap;html=1;" vertex="1" parent="1">
          <mxGeometry x="260" y="-720" width="60" height="60" as="geometry" />
        </mxCell>
        <mxCell id="pXC8YRk_RRQe1RSf-naC-23" style="edgeStyle=orthogonalEdgeStyle;rounded=0;orthogonalLoop=1;jettySize=auto;html=1;exitX=0.5;exitY=1;exitDx=0;exitDy=0;entryX=0.5;entryY=0;entryDx=0;entryDy=0;" edge="1" parent="1" source="pXC8YRk_RRQe1RSf-naC-8" target="pXC8YRk_RRQe1RSf-naC-11">
          <mxGeometry relative="1" as="geometry" />
        </mxCell>
        <mxCell id="pXC8YRk_RRQe1RSf-naC-8" value="&lt;font style=&quot;font-size: 18px&quot;&gt;Calculates similarity between the target profile and profiles from LPH&lt;/font&gt;" style="rounded=1;whiteSpace=wrap;html=1;" vertex="1" parent="1">
          <mxGeometry x="120" y="-620" width="340" height="60" as="geometry" />
        </mxCell>
        <mxCell id="pXC8YRk_RRQe1RSf-naC-31" style="edgeStyle=orthogonalEdgeStyle;rounded=0;orthogonalLoop=1;jettySize=auto;html=1;exitX=0.5;exitY=0;exitDx=0;exitDy=0;entryX=0.75;entryY=1;entryDx=0;entryDy=0;" edge="1" parent="1" source="pXC8YRk_RRQe1RSf-naC-9" target="pXC8YRk_RRQe1RSf-naC-6">
          <mxGeometry relative="1" as="geometry" />
        </mxCell>
        <mxCell id="pXC8YRk_RRQe1RSf-naC-9" value="&lt;font style=&quot;font-size: 18px&quot;&gt;Picks the next element of LR&lt;/font&gt;" style="rounded=1;whiteSpace=wrap;html=1;" vertex="1" parent="1">
          <mxGeometry x="560" y="-690" width="160" height="60" as="geometry" />
        </mxCell>
        <mxCell id="pXC8YRk_RRQe1RSf-naC-24" style="edgeStyle=orthogonalEdgeStyle;rounded=0;orthogonalLoop=1;jettySize=auto;html=1;exitX=0;exitY=0.5;exitDx=0;exitDy=0;" edge="1" parent="1" source="pXC8YRk_RRQe1RSf-naC-11" target="pXC8YRk_RRQe1RSf-naC-13">
          <mxGeometry relative="1" as="geometry">
            <Array as="points">
              <mxPoint x="120" y="-470" />
              <mxPoint x="120" y="-360" />
              <mxPoint x="265" y="-360" />
            </Array>
          </mxGeometry>
        </mxCell>
        <mxCell id="pXC8YRk_RRQe1RSf-naC-26" value="&lt;font&gt;&lt;font style=&quot;font-size: 16px&quot;&gt;There is a profile with &lt;br&gt;significant similarity&lt;/font&gt;&lt;br&gt;&lt;/font&gt;" style="edgeLabel;html=1;align=center;verticalAlign=middle;resizable=0;points=[];fontSize=16;" vertex="1" connectable="0" parent="pXC8YRk_RRQe1RSf-naC-24">
          <mxGeometry x="-0.4305" y="2" relative="1" as="geometry">
            <mxPoint x="64" y="58" as="offset" />
          </mxGeometry>
        </mxCell>
        <mxCell id="pXC8YRk_RRQe1RSf-naC-25" style="edgeStyle=orthogonalEdgeStyle;rounded=0;orthogonalLoop=1;jettySize=auto;html=1;exitX=1;exitY=0.5;exitDx=0;exitDy=0;entryX=0;entryY=0.5;entryDx=0;entryDy=0;" edge="1" parent="1" source="pXC8YRk_RRQe1RSf-naC-11" target="pXC8YRk_RRQe1RSf-naC-12">
          <mxGeometry relative="1" as="geometry" />
        </mxCell>
        <mxCell id="pXC8YRk_RRQe1RSf-naC-27" value="&lt;font style=&quot;font-size: 16px&quot;&gt;There is no profile &lt;br&gt;with significant memory&lt;/font&gt;" style="edgeLabel;html=1;align=center;verticalAlign=middle;resizable=0;points=[];" vertex="1" connectable="0" parent="pXC8YRk_RRQe1RSf-naC-25">
          <mxGeometry x="-0.121" y="1" relative="1" as="geometry">
            <mxPoint as="offset" />
          </mxGeometry>
        </mxCell>
        <mxCell id="pXC8YRk_RRQe1RSf-naC-11" value="" style="rhombus;whiteSpace=wrap;html=1;" vertex="1" parent="1">
          <mxGeometry x="260" y="-500" width="60" height="60" as="geometry" />
        </mxCell>
        <mxCell id="pXC8YRk_RRQe1RSf-naC-22" style="edgeStyle=orthogonalEdgeStyle;rounded=0;orthogonalLoop=1;jettySize=auto;html=1;exitX=0.5;exitY=1;exitDx=0;exitDy=0;entryX=0.5;entryY=0;entryDx=0;entryDy=0;" edge="1" parent="1" source="pXC8YRk_RRQe1RSf-naC-12" target="pXC8YRk_RRQe1RSf-naC-14">
          <mxGeometry relative="1" as="geometry" />
        </mxCell>
        <mxCell id="pXC8YRk_RRQe1RSf-naC-30" value="&lt;font style=&quot;font-size: 16px&quot;&gt;There is no next&lt;br&gt;element in LR&lt;/font&gt;" style="edgeLabel;html=1;align=center;verticalAlign=middle;resizable=0;points=[];" vertex="1" connectable="0" parent="pXC8YRk_RRQe1RSf-naC-22">
          <mxGeometry x="-0.1214" relative="1" as="geometry">
            <mxPoint y="-1" as="offset" />
          </mxGeometry>
        </mxCell>
        <mxCell id="pXC8YRk_RRQe1RSf-naC-28" style="edgeStyle=orthogonalEdgeStyle;rounded=0;orthogonalLoop=1;jettySize=auto;html=1;exitX=1;exitY=0.5;exitDx=0;exitDy=0;entryX=0.75;entryY=1;entryDx=0;entryDy=0;" edge="1" parent="1" source="pXC8YRk_RRQe1RSf-naC-12" target="pXC8YRk_RRQe1RSf-naC-9">
          <mxGeometry relative="1" as="geometry" />
        </mxCell>
        <mxCell id="pXC8YRk_RRQe1RSf-naC-29" value="&lt;font style=&quot;font-size: 16px&quot;&gt;There is some next &lt;br&gt;element in LR&lt;/font&gt;" style="edgeLabel;html=1;align=center;verticalAlign=middle;resizable=0;points=[];" vertex="1" connectable="0" parent="pXC8YRk_RRQe1RSf-naC-28">
          <mxGeometry x="0.1267" relative="1" as="geometry">
            <mxPoint x="-30" y="-15" as="offset" />
          </mxGeometry>
        </mxCell>
        <mxCell id="pXC8YRk_RRQe1RSf-naC-12" value="" style="rhombus;whiteSpace=wrap;html=1;" vertex="1" parent="1">
          <mxGeometry x="585" y="-500" width="60" height="60" as="geometry" />
        </mxCell>
        <mxCell id="pXC8YRk_RRQe1RSf-naC-21" style="edgeStyle=orthogonalEdgeStyle;rounded=0;orthogonalLoop=1;jettySize=auto;html=1;exitX=0.5;exitY=1;exitDx=0;exitDy=0;entryX=0.5;entryY=0;entryDx=0;entryDy=0;" edge="1" parent="1" source="pXC8YRk_RRQe1RSf-naC-13" target="pXC8YRk_RRQe1RSf-naC-15">
          <mxGeometry relative="1" as="geometry" />
        </mxCell>
        <mxCell id="pXC8YRk_RRQe1RSf-naC-13" value="&lt;font style=&quot;font-size: 18px&quot;&gt;Sorts profiles in ascending order of similarity&lt;/font&gt;" style="rounded=1;whiteSpace=wrap;html=1;" vertex="1" parent="1">
          <mxGeometry x="130" y="-320" width="270" height="60" as="geometry" />
        </mxCell>
        <mxCell id="pXC8YRk_RRQe1RSf-naC-20" style="edgeStyle=orthogonalEdgeStyle;rounded=0;orthogonalLoop=1;jettySize=auto;html=1;exitX=0.5;exitY=1;exitDx=0;exitDy=0;entryX=0.5;entryY=0;entryDx=0;entryDy=0;" edge="1" parent="1" source="pXC8YRk_RRQe1RSf-naC-14" target="pXC8YRk_RRQe1RSf-naC-16">
          <mxGeometry relative="1" as="geometry" />
        </mxCell>
        <mxCell id="pXC8YRk_RRQe1RSf-naC-14" value="&lt;font style=&quot;font-size: 18px&quot;&gt;Presents default recommendations according to treatment plan&lt;/font&gt;" style="rounded=1;whiteSpace=wrap;html=1;" vertex="1" parent="1">
          <mxGeometry x="520" y="-360" width="190" height="130" as="geometry" />
        </mxCell>
        <mxCell id="pXC8YRk_RRQe1RSf-naC-19" style="edgeStyle=orthogonalEdgeStyle;rounded=0;orthogonalLoop=1;jettySize=auto;html=1;exitX=1;exitY=0.5;exitDx=0;exitDy=0;entryX=0;entryY=0.5;entryDx=0;entryDy=0;" edge="1" parent="1" source="pXC8YRk_RRQe1RSf-naC-15" target="pXC8YRk_RRQe1RSf-naC-16">
          <mxGeometry relative="1" as="geometry" />
        </mxCell>
        <mxCell id="pXC8YRk_RRQe1RSf-naC-15" value="&lt;font style=&quot;font-size: 18px&quot;&gt;Presents recommendation according to the most similar profile&lt;/font&gt;" style="rounded=1;whiteSpace=wrap;html=1;" vertex="1" parent="1">
          <mxGeometry x="130" y="-130" width="270" height="100" as="geometry" />
        </mxCell>
        <mxCell id="pXC8YRk_RRQe1RSf-naC-16" value="" style="shape=image;html=1;verticalAlign=top;verticalLabelPosition=bottom;labelBackgroundColor=#ffffff;imageAspect=0;aspect=fixed;image=https://cdn4.iconfinder.com/data/icons/ionicons/512/icon-ios7-circle-filled-128.png" vertex="1" parent="1">
          <mxGeometry x="580" y="-115" width="70" height="70" as="geometry" />
        </mxCell>
        <mxCell id="pXC8YRk_RRQe1RSf-naC-37" value="&lt;span style=&quot;color: rgb(0 , 0 , 0) ; font-family: &amp;#34;helvetica&amp;#34; ; font-size: 16px ; font-style: normal ; font-weight: 400 ; letter-spacing: normal ; text-align: center ; text-indent: 0px ; text-transform: none ; word-spacing: 0px ; background-color: rgb(255 , 255 , 255) ; display: inline ; float: none&quot;&gt;LPH is&amp;nbsp;empty&lt;/span&gt;" style="text;whiteSpace=wrap;html=1;" vertex="1" parent="1">
          <mxGeometry x="380" y="-680" width="100" height="30" as="geometry" />
        </mxCell>
      </root>
    </mxGraphModel>
  </diagram>
</mxfile>
